<?xml version="1.0" encoding="utf-8"?>
<!-- Generator: Adobe Illustrator 16.0.0, SVG Export Plug-In . SVG Version: 6.00 Build 0)  -->
<!DOCTYPE svg PUBLIC "-//W3C//DTD SVG 1.1//EN" "http://www.w3.org/Graphics/SVG/1.1/DTD/svg11.dtd">
<svg version="1.1" id="Calque_1" focusable="false" xmlns="http://www.w3.org/2000/svg" xmlns:xlink="http://www.w3.org/1999/xlink"
	 x="0px" y="0px" width="198.43px" height="141.73px" viewBox="0 0 198.43 141.73" enable-background="new 0 0 198.43 141.73"
	 xml:space="preserve">
<path fill="#FFFFFF" d="M286.987,8.858h-24.742c-1.134,0-2.056,0.934-2.056,2.081v24.697c0,1.146,0.922,2.081,2.056,2.081h24.742
	c1.134,0,2.062-0.934,2.062-2.081V10.939C289.049,9.792,288.121,8.858,286.987,8.858z M274.619,28.394l-6.22,5.598V13.364h12.404
	l0.035,20.628L274.619,28.394z"/>
<path fill="#808080" d="M147.935,8.858H50.495c-7.335,0-13.287,5.951-13.287,13.287v97.439c0,7.336,5.952,13.287,13.287,13.287
	h97.439c7.335,0,13.287-5.951,13.287-13.287V22.145C161.222,14.809,155.27,8.858,147.935,8.858z M99.215,88.309L76.21,109.012
	V32.717h45.879l0.131,76.295L99.215,88.309z"/>
<path fill="#FFFFFF" d="M99.215-101.024L76.21-80.321v-76.295h45.879l0.131,76.295L99.215-101.024z"/>
</svg>
